<svg aria-hidden="true" style="position:absolute;width:0;height:0;overflow:hidden" xmlns="http://www.w3.org/2000/svg">
  <defs>
    <symbol id="icon-antenna" viewBox="0 0 32 32">
      <path fill="#212121" style="fill: var(--color1, #212121)" d="m30.773 22.098-8.443-8.505.937-4.616c.225.09.485.144.758.146h.033a2.16 2.16 0 1 0-2.029-1.42l-.005-.015-4.96.606L8.973.161a.53.53 0 0 0-.376-.16.536.536 0 0 0-.373.155L6.712 1.66a.535.535 0 0 0 0 .754l.814.825C6.383 5.301 5.71 7.761 5.71 10.378c0 4.106 1.656 7.824 4.336 10.525l-.001-.001a.49.49 0 0 0 .146.097 2.986 2.986 0 0 0-.052.546v6.188h-6.4a2.669 2.669 0 0 0-2.667 2.666v1.067c0 .295.239.534.534.534H26.14a.534.534 0 0 0 .533-.534v-1.067a2.67 2.67 0 0 0-2.666-2.666h-6.4v-2.742a14.784 14.784 0 0 0 10.166-1.502l-.077.039.818.823a.534.534 0 0 0 .376.16.536.536 0 0 0 .373-.155l1.512-1.504a.535.535 0 0 0 0-.754zM23.28 6.233a1.067 1.067 0 1 1 .752 1.822h-.004a1.066 1.066 0 0 1-.747-1.822h-.002zm-1.256 3.504-.598 2.946-1.175-1.183 1.774-1.763zm-.605-.902-1.92 1.909-1.486-1.493 3.406-.416zM24.004 28.8a1.6 1.6 0 0 1 1.6 1.6v.534H2.138V30.4a1.6 1.6 0 0 1 1.6-1.6h20.267zm-7.466-2.134v1.067h-5.334v-1.067h5.334zM11.204 25.6v-4.053c0-1.294 1.196-2.346 2.667-2.346s2.667 1.053 2.667 2.346V25.6h-5.334zm6.4-1.696v-2.357c0-1.882-1.675-3.413-3.733-3.413h-.058c-1.353 0-2.54.707-3.213 1.771l-.009.016a13.817 13.817 0 0 1-3.812-9.55c0-2.314.567-4.496 1.569-6.414l-.036.077 18.602 18.709c-1.823.947-3.979 1.502-6.266 1.502-1.079 0-2.128-.124-3.136-.357l.093.018zm11.289-.684L7.836 2.039l.754-.752 7.935 7.98c.004 0 .006.007.01.01l13.114 13.191-.757.752z"/>
      <path fill="#2196f3" style="fill: var(--color2, #2196f3)" d="M13.876 20.267h-.007a1.6 1.6 0 0 0-.003 3.2h.007a1.6 1.6 0 0 0 .002-3.2zm.373 1.978a.534.534 0 1 1-.378-.912.533.533 0 0 1 .374.911h.005z"/>
    </symbol>
    <symbol id="icon-astronaut" viewBox="0 0 32 32">
      <path fill="#2196f3" style="fill: var(--color2, #2196f3)" d="M31.974 4.524a.535.535 0 0 0-.427-.362h-.003l-1.911-.278-.855-1.731c-.179-.365-.777-.365-.956 0l-.855 1.731-1.911.278a.534.534 0 0 0-.296.91l1.383 1.348-.326 1.903a.532.532 0 0 0 .774.562l1.709-.899 1.709.899a.534.534 0 0 0 .773-.565v.003l-.326-1.903 1.383-1.348a.535.535 0 0 0 .134-.55l.001.004zm-2.463 1.327a.53.53 0 0 0-.153.472l.191 1.114-1-.526a.525.525 0 0 0-.501.001l.003-.001-1 .526.191-1.114a.53.53 0 0 0-.152-.472l-.811-.79 1.119-.162a.532.532 0 0 0 .402-.292l.5-1.013.5 1.013a.532.532 0 0 0 .402.292l1.119.162-.809.79zm-3.377 14.671h-1.067v1.067h1.067v-1.067zm0 2.134h-1.067v1.066h1.067v-1.066zm1.066-1.067h-1.067v1.067H27.2v-1.067zm-2.133 0H24v1.067h1.067v-1.067zm-2.667 4.8h-1.067v1.067H22.4v-1.067zm0 2.134h-1.067v1.067H22.4v-1.067zm1.067-1.067H22.4v1.067h1.067v-1.067zm-2.133 0h-1.067v1.067h1.067v-1.067zM16 24.256h-1.066v1.067H16v-1.067zm0 2.133h-1.066v1.067H16v-1.067zm1.067-1.067H16v1.067h1.067v-1.067zm-2.133 0h-1.067v1.067h1.067v-1.067zm-9.067-19.2H4.801v1.066h1.066V6.122zm0 2.134H4.801v1.066h1.066V8.256zm1.066-1.067H5.866v1.067h1.066V7.189zm-2.133 0H3.733v1.067H4.8V7.189z"/>
      <path fill="#212121" style="fill: var(--color1, #212121)" d="M24.715 14.16a1.774 1.774 0 0 0-1.179-.703l-.009-.001a1.769 1.769 0 0 0-1.344.355l.004-.003-1.253.96-1.898 1.417-1.358-.541c2.421-1.086 4.113-3.508 4.113-6.32 0-3.823-3.122-6.934-6.961-6.934S7.869 5.5 7.869 9.324c0 1.386.415 2.674 1.12 3.759l-2.768-.024c-.009 0-.016.005-.023.005a.511.511 0 0 0-.159.033l.004-.001c-.013.005-.026.007-.038.013-.006.003-.013.003-.019.006l-3.233 1.596-.001.001-1.893.91a.5.5 0 0 0-.065.036l.001-.001a1.782 1.782 0 0 0-.594 2.306l-.005-.01c.22.424.592.742 1.043.885l.013.003a1.772 1.772 0 0 0 1.388-.133l-.009.005 1.388-.738 2.264-1.169 1.357-.008-5.442 5.415-.001.001-1.339 1.333a1.643 1.643 0 0 0-.491 1.173v.005a1.668 1.668 0 0 0 1.667 1.664h.002a1.67 1.67 0 0 0 1.18-.485l1.314-1.309 1.741-1.3.901.897L4.07 27.28a1.643 1.643 0 0 0-.491 1.173v.004a1.662 1.662 0 0 0 1.666 1.664h.003a1.67 1.67 0 0 0 1.18-.485l4.488-4.472c.007-.006.016-.009.022-.016l5.166-5.658 3.471.494a.474.474 0 0 0 .262-.032c.017-.006.032-.015.049-.023.019-.01.039-.015.058-.027l3.213-2.133c.012-.008.018-.021.029-.03.013-.01.029-.014.041-.026l1.271-1.191c.348-.326.564-.787.564-1.3 0-.4-.132-.769-.355-1.066l.003.005zM2.13 17.77a.706.706 0 0 1-.564.05l.005.001a.717.717 0 0 1-.215-1.258l.002-.001 1.314-.632.316.924.133.389-.992.527zm3.497-1.828-1.548.8-.255-.746-.184-.537 2.027-1.001-.04 1.484zm15.1-6.62c0 .918-.219 1.785-.599 2.56l-4.181-1.899a1.865 1.865 0 0 0-.782-1.384l-.006-.004 1.464-4.861c2.377.757 4.104 2.975 4.104 5.588zm-11.789 0c0-3.235 2.644-5.867 5.894-5.867.253 0 .5.022.745.053l-1.432 4.753c-.019 0-.037-.006-.057-.006h-.001a1.872 1.872 0 0 0-1.872 1.867 1.873 1.873 0 0 0 1.872 1.867h.001c.695 0 1.295-.383 1.618-.944l3.863 1.755a5.891 5.891 0 0 1-4.737 2.39c-3.25 0-5.894-2.632-5.894-5.867zm5.957.8c0 .441-.362.8-.806.8h-.001a.804.804 0 0 1-.804-.8c0-.441.361-.8.806-.8s.806.359.806.8zM2.464 25.146a.606.606 0 0 1-.855.001.591.591 0 0 1 0-.844l.962-.959.852.848-.959.954zm3.214 3.734a.606.606 0 0 1-.855.001.591.591 0 0 1 0-.844l.963-.959.852.848-.96.955zm3.482-3.469-.001.001-1.765 1.76-.852-.848 1.765-1.757a.527.527 0 0 0 .09-.136c.007-.014.02-.026.026-.04.016-.041.019-.085.026-.128.003-.025.014-.048.014-.073 0-.035-.013-.07-.02-.105-.006-.032-.006-.064-.019-.096a.536.536 0 0 0-.092-.138c-.01-.012-.014-.026-.025-.038h-.001l-.001-.002-1.607-1.6c-.017-.017-.039-.024-.058-.038a.491.491 0 0 0-.084-.056l-.003-.001a.527.527 0 0 0-.09-.031l-.003-.001a.502.502 0 0 0-.101-.02h-.025a.603.603 0 0 0-.075.005h.003c-.036.005-.069.009-.104.021s-.064.027-.094.045c-.02.011-.043.015-.061.029l-1.774 1.324-.901-.897 2.399-2.386 4.36 4.289-.928.919zm6.819-7.017c-.016-.002-.03.004-.046.003l-.027-.001a.562.562 0 0 0-.092.008h.003a.484.484 0 0 0-.187.07l.002-.001a.492.492 0 0 0-.083.061c-.013.011-.028.016-.04.029l-4.698 5.146-4.328-4.256 2.833-2.818a.535.535 0 0 0-.378-.911h-.002l-2.219.013.028-1.607 3.104.027a6.928 6.928 0 0 0 4.978 2.101h.003c.438 0 .864-.046 1.28-.122.04.032.08.064.129.085l2.41.96.152.758.178.886-3.003-.427zm4.041.178-.313-1.558 1.446-1.08.946 1.257-2.08 1.381zm3.753-2.831-.837.785-.931-1.236.831-.637a.735.735 0 0 1 .543-.143.718.718 0 0 1 .621.71.71.71 0 0 1-.226.521z"/>
      <path fill="#212121" style="fill: var(--color1, #212121)" d="m13.602 18.544-2.143-2.134a.53.53 0 0 0-.752 0l-2.143 2.133a.535.535 0 0 0 0 .756l2.142 2.134a.53.53 0 0 0 .752 0l2.143-2.134a.532.532 0 0 0 0-.756zm-2.519 1.759-1.387-1.381 1.386-1.381 1.387 1.381-1.387 1.381zm6.081-15.232-.258 1.036c.071.018 1.738.452 1.738 2.149h1.067c0-2.017-1.666-2.965-2.547-3.184zm2.547 4.251h-1.067v1.066h1.067V9.322z"/>
    </symbol>
    <symbol id="icon-clock" viewBox="0 0 32 32">
      <path fill="#212121" style="fill: var(--color1, #212121)" d="M31.296 15.301C31.295 6.849 24.441-.002 15.988 0S.685 6.855.687 15.308c.002 6.788 4.422 12.543 10.541 14.545l.108.031a.667.667 0 0 0 .529-.065.636.636 0 0 0 .283-.357l3.865-12.25a1.913 1.913 0 1 0-.852-3.63l.011-.005-5.106-5.107a.638.638 0 0 0-.902.902l5.103 5.109a1.847 1.847 0 0 0-.191.826c0 .602.283 1.137.723 1.48l.004.003-3.682 11.673C3.843 25.782.117 17.709 2.797 10.431S13.551-.573 20.829 2.108c7.278 2.681 11.004 10.754 8.323 18.032-1.345 3.581-4.003 6.406-7.374 7.938l-.088.036-.398-1.874a.639.639 0 0 0-1.05-.343l.001-.001-3.837 3.426a.637.637 0 0 0 .227 1.083l.005.001 4.899 1.563a.637.637 0 0 0 .818-.744l.001.004-.391-1.839c5.528-2.374 9.329-7.772 9.329-14.057v-.034.002zm-15.304-.637a.638.638 0 0 1 0 1.276.638.638 0 0 1 0-1.276zm2.1 14.864 2.184-1.948.603 2.84-2.787-.892z"/>
      <path fill="#2196f3" style="fill: var(--color2, #2196f3)" d="M15.354 3.185V4.46a.638.638 0 0 0 1.276 0V3.185a.638.638 0 1 0-1.276 0zM3.876 14.664a.638.638 0 0 0 0 1.276h1.275a.638.638 0 0 0 0-1.276H3.876zm24.232 1.275a.638.638 0 0 0 0-1.276h-1.275a.638.638 0 0 0 0 1.276h1.275z"/>
    </symbol>
    <symbol id="icon-diagram" viewBox="0 0 32 32">
      <path fill="#2196f3" style="fill: var(--color2, #2196f3)" d="M14.926 14.965h1.066v4.798h-1.066v-4.798zm4.264 2.132h1.066v2.665H19.19v-2.665zm-8.529 1.599h1.066v1.066h-1.066v-1.066zm-3.198-.533h1.066v1.599H7.463v-1.599z"/>
      <path fill="#212121" style="fill: var(--color1, #212121)" d="M1.599 28.291h25.586a1.6 1.6 0 0 0 1.599-1.599V24.56a1.6 1.6 0 0 0-1.599-1.599h-.533V9.667l3.028-2.868a1.608 1.608 0 1 0-.742-.752l-.004-.01-2.281 2.162v-1.23a1.6 1.6 0 0 0-1.599-1.599H3.731a1.6 1.6 0 0 0-1.599 1.599v15.992h-.533A1.6 1.6 0 0 0 0 24.56v2.132a1.6 1.6 0 0 0 1.599 1.599zM30.384 4.837a.533.533 0 0 1 0 1.066.533.533 0 0 1 0-1.066zM3.198 6.969c0-.294.239-.533.533-.533h21.323c.294 0 .533.239.533.533v2.239l-1.066 1.013V8.036a.534.534 0 0 0-.534-.534H4.798a.534.534 0 0 0-.534.533v13.327c0 .294.239.533.534.533h19.189a.534.534 0 0 0 .534-.533v-9.675l1.066-1.01V22.96H3.198V6.969zm4.798 6.93h-.005a1.6 1.6 0 1 0 1.112 2.748l1.853.93a.535.535 0 0 0 .636-.122l3.939-4.432 3.872 2.902a.534.534 0 0 0 .686-.039l3.365-3.188v8.131H5.331V8.568h18.123v2.661l-3.771 3.572-3.904-2.927a.534.534 0 0 0-.718.071v.001l-3.993 4.493-1.493-.746c.011-.064.017-.128.02-.193a1.6 1.6 0 0 0-1.599-1.599zm.533 1.599a.533.533 0 0 1-1.066 0 .533.533 0 0 1 1.066 0zm3.198 8.528h5.33v.533a.533.533 0 0 1-.533.533h-4.265a.533.533 0 0 1-.533-.533v-.533zm-10.66.534c0-.294.238-.533.533-.533h9.062v.533a1.6 1.6 0 0 0 1.599 1.599h4.265a1.6 1.6 0 0 0 1.599-1.599v-.533h9.062c.294 0 .533.239.533.533v2.132a.533.533 0 0 1-.533.533H1.601a.533.533 0 0 1-.533-.533V24.56z"/>
    </symbol>
    <symbol id="icon-envelope" viewBox="0 0 43 32">
     <path d="M38.667 0h-34.667c-2.206 0-4 1.794-4 4v24c0 2.206 1.794 4 4 4h34.667c2.206 0 4-1.794 4-4v-24c0-2.206-1.794-4-4-4zM38.667 2.667c0.181 0 0.353 0.038 0.511 0.103l-17.844 15.466-17.844-15.466c0.158-0.066 0.33-0.103 0.511-0.103h34.667zM38.667 29.333h-34.667c-0.736 0-1.333-0.598-1.333-1.333v-22.413l17.793 15.421c0.251 0.217 0.563 0.326 0.874 0.326s0.622-0.108 0.874-0.326l17.793-15.421v22.413c0 0.736-0.598 1.333-1.333 1.333z"/>
    </symbol>
    <symbol id="icon-smartphone" viewBox="0 0 20 32">
      <path d="M17 0h-14c-1.654 0-3 1.346-3 3v26c0 1.654 1.346 3 3 3h14c1.654 0 3-1.346 3-3v-26c0-1.654-1.346-3-3-3zM3 2h14c0.552 0 1 0.448 1 1v21h-16v-21c0-0.552 0.448-1 1-1zM17 30h-14c-0.552 0-1-0.448-1-1v-3h16v3c0 0.552-0.448 1-1 1z"></path>
<path d="M4.707 27.478c0.391 0.365 0.391 0.956 0 1.321s-1.024 0.365-1.414 0c-0.391-0.365-0.391-0.956 0-1.321s1.024-0.365 1.414 0z"/>
    <symbol id="icon-facebooko" viewBox="0 0 32 32">
      <path  d="M21.329 5.313h2.921V.225C23.746.156 22.013 0 19.994 0c-4.212 0-7.097 2.649-7.097 7.519V12H8.249v5.688h4.648V32h5.699V17.689h4.46l.708-5.688h-5.169V8.082c.001-1.644.444-2.769 2.735-2.769z"/>
    </symbol>
    <symbol id="icon-instagramo" viewBox="0 0 32 32">
      <path  d="M31.969 9.408c-.075-1.7-.35-2.869-.744-3.882a7.847 7.847 0 0 0-1.85-2.837l-.001-.001A7.88 7.88 0 0 0 26.596.862l-.054-.018C25.523.45 24.36.175 22.66.1 20.947.019 20.403 0 16.059 0s-4.888.019-6.595.094c-1.7.075-2.869.35-3.882.744a7.845 7.845 0 0 0-2.837 1.849l-.001.001A7.89 7.89 0 0 0 .918 5.466L.9 5.52C.506 6.539.231 7.702.156 9.402c-.081 1.713-.1 2.257-.1 6.601s.019 4.888.094 6.595c.075 1.7.35 2.869.744 3.882a7.941 7.941 0 0 0 1.849 2.837l.001.001a7.89 7.89 0 0 0 2.778 1.826l.054.018c1.019.394 2.182.669 3.882.744 1.706.075 2.25.094 6.595.094s4.888-.019 6.595-.094c1.7-.075 2.869-.35 3.882-.744a8.233 8.233 0 0 0 4.663-4.627l.019-.055c.394-1.019.669-2.182.744-3.882.075-1.707.094-2.251.094-6.595s-.006-4.888-.081-6.595zm-2.882 13.065c-.069 1.563-.331 2.407-.55 2.969a5.334 5.334 0 0 1-3.002 3.025l-.036.013c-.563.219-1.413.481-2.969.55-1.688.075-2.194.094-6.464.094s-4.782-.019-6.464-.094c-1.563-.069-2.407-.331-2.969-.55a4.947 4.947 0 0 1-1.837-1.193l-.001-.001a4.988 4.988 0 0 1-1.183-1.804l-.011-.034c-.219-.563-.481-1.413-.55-2.969-.075-1.688-.094-2.194-.094-6.464s.019-4.782.094-6.464c.069-1.563.331-2.407.55-2.969a4.885 4.885 0 0 1 1.198-1.836l.002-.002a4.988 4.988 0 0 1 1.804-1.183l.034-.011c.563-.219 1.413-.481 2.969-.55 1.688-.075 2.194-.094 6.464-.094 4.276 0 4.782.019 6.464.094 1.563.069 2.407.331 2.969.55a4.947 4.947 0 0 1 1.837 1.193l.001.001a4.988 4.988 0 0 1 1.183 1.804l.011.034c.219.563.481 1.413.55 2.969.075 1.688.094 2.194.094 6.464s-.019 4.77-.094 6.458z"/>
      <path  d="M16.059 7.783c-4.538 0-8.22 3.682-8.22 8.22s3.682 8.22 8.22 8.22 8.22-3.682 8.22-8.22-3.682-8.22-8.22-8.22zm0 13.552a5.334 5.334 0 0 1-.006-10.664h.005a5.334 5.334 0 0 1 .006 10.664h-.005zM26.524 7.458a1.919 1.919 0 1 1-3.838 0 1.919 1.919 0 1 1 3.838 0z"/>
    </symbol>
    <symbol id="icon-linkedino" viewBox="0 0 32 32">
      <path  d="M31.992 32v-.001H32V20.263c0-5.741-1.236-10.164-7.948-10.164-3.227 0-5.392 1.771-6.276 3.449h-.093v-2.913h-6.364v21.364h6.627V21.42c0-2.785.528-5.479 3.977-5.479 3.399 0 3.449 3.179 3.449 5.657v10.401h6.62zM.528 10.636h6.635V32H.528V10.636zM3.843 0C1.722 0 0 1.721 0 3.843s1.721 3.879 3.843 3.879c2.121 0 3.843-1.757 3.843-3.879A3.846 3.846 0 0 0 3.843 0z"/>
    </symbol>
    <symbol id="icon-twittero" viewBox="0 0 32 32">
      <path  d="M32 6.078c-1.19.522-2.458.868-3.78 1.036a6.555 6.555 0 0 0 2.873-3.58l.013-.046a12.858 12.858 0 0 1-4.076 1.574l-.084.014A6.559 6.559 0 0 0 22.154 3c-3.632 0-6.556 2.948-6.556 6.562 0 .52.044 1.02.152 1.496-5.454-.266-10.28-2.88-13.522-6.862a6.533 6.533 0 0 0-.898 3.316 6.56 6.56 0 0 0 2.891 5.437l.023.015a6.454 6.454 0 0 1-2.997-.825l.033.017v.072c0 3.188 2.274 5.836 5.256 6.446a6.408 6.408 0 0 1-1.669.216h-.054.003a5.842 5.842 0 0 1-1.279-.118l.037.006c.85 2.598 3.262 4.508 6.13 4.57a13.098 13.098 0 0 1-8.12 2.798h-.015.001c-.538 0-1.054-.024-1.57-.09C2.826 27.902 6.287 29 10.004 29h.063-.003c12.072 0 18.672-10 18.672-18.668 0-.29-.01-.57-.024-.848a13.186 13.186 0 0 0 3.258-3.359l.03-.047z"/>
    </symbol>
    <symbol id="icon-Logo1o" viewBox="0 0 57 32">
      <path  d="m20.267 3.733 3.738 3.538-6.938-.004v17.166H35.2v-6.564l3.733 3.534V3.732H20.266zm14.769 13.722L24.439 7.423h10.597v10.032zm-3.29 4.468h-11.81V10.378h.835v10.764h10.975v.782zm-9.021 4.797-.436.898-.436-.898h-.366l.637 1.198v.698h.331v-.698l.635-1.198h-.365zm.548 1.895.154-.441h.734l.155.441h.344l-.717-1.896h-.296l-.716 1.896h.342zm.521-1.493.275.786h-.549l.275-.786zm1.737.741a.426.426 0 0 0-.072.238v.003c0 .16.056.29.168.389s.263.148.451.148.349-.051.484-.152l.107.126h.367l-.279-.329a.944.944 0 0 0 .165-.535l-.001-.041v.002h-.275v.011a.749.749 0 0 1-.081.341l.002-.004-.366-.432.129-.094c.091-.066.157-.132.197-.198s.06-.14.06-.219c0-.12-.044-.22-.133-.301s-.201-.122-.339-.122c-.153 0-.274.043-.365.13s-.135.203-.135.352c0 .061.014.124.043.189s.081.144.155.237c-.11.072-.204.159-.281.259l-.002.003zm.855.419a.478.478 0 0 1-.299.107c-.095 0-.17-.027-.227-.082s-.085-.126-.085-.214c0-.102.052-.192.156-.271l.04-.029.414.488zm-.34-.84c-.089-.11-.134-.202-.134-.275 0-.063.018-.116.055-.158s.085-.063.147-.063c.057 0 .105.018.142.053s.056.077.056.126v.006a.232.232 0 0 1-.081.177l-.04.033-.145.099zm3.086 1.03a.69.69 0 0 0 .224-.472v-.002h-.328c-.017.135-.059.232-.124.29s-.162.087-.292.087c-.142 0-.249-.054-.323-.161s-.109-.264-.109-.469v-.168c.002-.202.041-.355.117-.46s.188-.158.331-.158c.123 0 .217.03.28.091s.104.158.12.294h.328c-.021-.207-.095-.368-.223-.482s-.296-.171-.505-.171h-.027a.717.717 0 0 0-.654.422l-.002.005c-.06.133-.095.288-.095.451v.023-.001.177c.003.174.035.328.098.46s.151.234.266.306c.11.067.243.107.386.107h.015-.001c.216 0 .389-.056.52-.169zm1.936-.266c.064-.141.096-.304.096-.49v-.105a1.151 1.151 0 0 0-.099-.486.727.727 0 0 0-.664-.432h-.024.001-.013a.751.751 0 0 0-.401.115l.003-.002c-.119.075-.211.183-.277.324s-.098.305-.098.49v.107c.001.181.034.342.099.48s.159.246.279.322c.113.07.251.112.398.112h.013-.001c.155 0 .293-.037.411-.112s.212-.183.276-.323zm-.352-1.071c.08.112.12.273.12.483v.099c0 .214-.04.376-.119.487s-.19.167-.336.167c-.144 0-.257-.057-.339-.171s-.121-.275-.121-.483v-.109c.002-.204.043-.362.122-.473s.192-.168.335-.168c.146 0 .258.056.337.168z"/>
    </symbol>
    <symbol id="icon-Logo2o" viewBox="0 0 57 32">
      <path  d="M26.727 3.165h-.073a7.61 7.61 0 0 0-.331-.012h-.248c-.212 0-.428.005-.642.016l-.024-.001-.026.001h.001c-1.944.11-3.848.596-5.609 1.431l-.231.111V16.52l.54-.183a16.55 16.55 0 0 1 1.356-.413l.144-.032a17.855 17.855 0 0 1 4.304-.574h.013v1.551c-.193.001-.38.007-.568.016h-.045c-1.212.068-2.348.25-3.442.537l.12-.027c-1.503.382-2.82.91-4.044 1.586l.087-.044V3.792a15.515 15.515 0 0 1 4.041-1.664l.11-.024c1.278-.33 2.593-.5 3.913-.504h.228c.273.007.538.019.788.038.658.046 1.31.15 1.95.311v1.527a11.385 11.385 0 0 0-1.85-.283l-.039-.002-.039-.003c-.132-.011-.263-.022-.386-.022zm2.688 1.561c.339.026.689.038 1.044.038a16.794 16.794 0 0 0 4.231-.554l-.117.026a16.924 16.924 0 0 0 4.043-1.587l-.087.044v14.875a15.53 15.53 0 0 1-4.043 1.664l-.11.024c-1.173.314-2.52.497-3.91.503h-.003c-1 .008-1.997-.11-2.968-.35V4.438c.229.053.465.102.706.142.394.066.81.115 1.214.145zm7.57.115-.54.182c-.497.167-.997.316-1.5.449-1.344.36-2.888.57-4.48.575h-.003c-.352 0-.676-.01-.989-.03l-.43-.028v12.148l.37.033c.343.03.696.045 1.052.045a14.371 14.371 0 0 0 3.631-.48l-.1.023c.95-.238 1.874-.57 2.759-.991l.231-.111V4.843zM19.06 24.113a.788.788 0 0 0-.57-.244l-.032.001h.002-.012a.897.897 0 0 0-.341.067l.006-.002a.785.785 0 0 0-.442.444l-.002.005a.882.882 0 0 0-.062.327v2.031l-.001.034c0 .138.03.269.083.387l-.002-.006a.722.722 0 0 0 .475.414l.005.001c.098.028.2.042.302.042a.855.855 0 0 0 .838-.851v-.226h-.529v.194a.45.45 0 0 1-.032.169l.001-.003a.315.315 0 0 1-.077.114.377.377 0 0 1-.222.077.266.266 0 0 1-.249-.108l-.001-.001a.476.476 0 0 1-.07-.25v-.022.001-1.907c0-.103.024-.2.067-.286l-.002.004c.027-.043.066-.077.112-.098s.097-.03.147-.024h.01c.092 0 .174.045.225.113l.001.001c.059.078.09.173.088.271v.175h.524v-.21a.952.952 0 0 0-.243-.636l.001.001zm3.142-.023a.918.918 0 0 0-1.199.001l.001-.001a.822.822 0 0 0-.203.278l-.002.005a.94.94 0 0 0-.077.377v.016-.001 1.966c0 .134.028.262.08.378l-.002-.006c.05.107.119.197.204.27l.001.001a.819.819 0 0 0 .273.169l.006.002a.894.894 0 0 0 .919-.171l-.001.001a.849.849 0 0 0 .198-.266l.002-.005a.92.92 0 0 0 .077-.372v-.026.001-1.959a.927.927 0 0 0-.08-.38l.002.006a.864.864 0 0 0-.2-.283zm-.247 2.616a.355.355 0 0 1-.105.28.387.387 0 0 1-.499 0h.001a.349.349 0 0 1-.106-.252l.001-.029v.001-1.941l-.001-.027c0-.099.041-.189.106-.253a.387.387 0 0 1 .499 0h-.001a.349.349 0 0 1 .106.252l-.001.029v-.001 1.941zm4.374.867v-3.674h-.509l-.668 1.945h-.009l-.673-1.945h-.503v3.674h.525v-2.235h.009l.514 1.58h.262l.518-1.58h.009v2.235h.525zm2.982-3.416a.719.719 0 0 0-.292-.199l-.005-.002a1.153 1.153 0 0 0-.361-.057h-.799v3.674h.523v-1.435h.27l.043.001a.962.962 0 0 0 .435-.103l-.006.003a.766.766 0 0 0 .285-.277l.002-.004a.849.849 0 0 0 .119-.315l.001-.005c.021-.138.03-.278.028-.418l.001-.06a2.1 2.1 0 0 0-.055-.479l.003.014a.789.789 0 0 0-.193-.338zm-.27 1.12a.454.454 0 0 1-.05.194l.001-.003a.294.294 0 0 1-.133.128l-.002.001a.536.536 0 0 1-.219.047l-.029-.001h.001-.239v-1.249h.27l.024-.001c.077 0 .15.017.215.048l-.003-.001a.304.304 0 0 1 .122.134l.001.002c.027.06.044.13.046.204v.245c0 .085.005.174 0 .252h-.005zm2.75-1.378h-.429l-.809 3.674h.523l.154-.789h.714l.154.789h.524l-.83-3.674zm-.483 2.384.258-1.332h.009l.256 1.332h-.524zm3.865-.171h-.009l-.791-2.213h-.503v3.674h.523v-2.209h.011l.8 2.209h.492v-3.674h-.523v2.213zm3.199-2.213-.421 1.461h-.011l-.421-1.461h-.554l.719 2.121v1.553h.524V26.02l.719-2.121h-.554zM17.6 28.61h.252v.708h.171v-.708h.251v-.145h-.675v.145zm2.121-.145-.331.853h.182l.07-.194h.34l.073.194h.186l-.339-.853h-.182zm-.027.516.116-.316.116.316h-.232zm2.124.023h.197v.11a.329.329 0 0 1-.202.072c-.034.002-.069-.004-.1-.019s-.059-.036-.081-.063a.347.347 0 0 1-.064-.202l.001-.021v.001c0-.19.082-.285.246-.285.043-.004.086.007.121.032s.061.062.072.104l.169-.033c-.036-.167-.156-.251-.362-.251h-.012a.426.426 0 0 0-.286.11.412.412 0 0 0-.122.329v-.002.02c0 .114.041.219.11.3l-.001-.001a.405.405 0 0 0 .295.126l.03-.001h-.001.015a.511.511 0 0 0 .348-.137v-.336h-.37v.144zm2.141-.539h-.173v.853h.598v-.145h-.425v-.708zm1.81 0h-.173v.853h.173v-.853zm1.77.57-.349-.57h-.167v.853h.161v-.557l.343.557h.171v-.853h-.158v.57zm1.601-.092h.425v-.145h-.425v-.187h.457v-.145h-.63v.853h.648v-.145h-.475v-.231zm3.88-.141h-.336v-.336h-.171v.853h.171v-.373h.336v.373h.171v-.853h-.171v.336zm1.609.141h.426v-.145h-.426v-.187h.459v-.145h-.63v.853h.646v-.145h-.475v-.231zm2.183 0c.148-.023.224-.102.224-.237l.001-.024a.201.201 0 0 0-.085-.165h-.001a.478.478 0 0 0-.252-.05h.002-.362v.853h.171v-.357h.048c.034 0 .065.007.094.02l-.001-.001a.197.197 0 0 1 .061.061v.001l.186.271h.205l-.104-.167a.611.611 0 0 0-.187-.204l-.002-.001zm-.172-.118h-.127v-.214h.135a.413.413 0 0 1 .177.02l-.003-.001a.128.128 0 0 1 .029.04.105.105 0 0 1 .009.044.119.119 0 0 1-.013.053v-.001a.114.114 0 0 1-.032.037.486.486 0 0 1-.142.021l-.034-.001h.002zm1.818.118h.425v-.145h-.425v-.187h.459v-.145h-.631v.853h.648v-.145h-.475v-.231z"/>
    </symbol>
    <symbol id="icon-Logo3o" viewBox="0 0 57 32">
      <path  d="M19.417 26.187c.008 0 .017.002.025.005s.015.007.02.013l.116.111a.958.958 0 0 1-.321.209l-.006.002a1.283 1.283 0 0 1-.439.076h-.027.001-.026c-.147 0-.288-.026-.418-.074l.008.003a.958.958 0 0 1-.33-.2h.001a.874.874 0 0 1-.21-.302l-.002-.006a1 1 0 0 1-.074-.382v-.015.001-.025c0-.27.118-.513.304-.679l.001-.001c.098-.086.214-.154.342-.199l.007-.002c.143-.048.296-.072.449-.071.143-.003.285.019.417.064.115.043.221.104.313.178l-.097.119a.103.103 0 0 1-.025.021.064.064 0 0 1-.034.009h-.006a.083.083 0 0 1-.042-.013l-.052-.032-.073-.04a.783.783 0 0 0-.224-.07l-.005-.001a1.115 1.115 0 0 0-.169-.013h-.014a.944.944 0 0 0-.32.055l.007-.002a.685.685 0 0 0-.415.383l-.002.004a.795.795 0 0 0-.06.306v.022c0 .109.022.214.062.309l-.002-.005a.683.683 0 0 0 .397.381l.005.002a.84.84 0 0 0 .29.05h.01-.001c.059.001.119-.003.177-.01a.689.689 0 0 0 .385-.164l-.001.001a.088.088 0 0 1 .055-.02zm3.359-.558v.011a.966.966 0 0 1-.081.388l.002-.006c-.047.114-.122.218-.219.305s-.214.155-.344.2a1.436 1.436 0 0 1-.894-.002l.01.003a1.02 1.02 0 0 1-.343-.202l.001.001a.912.912 0 0 1-.219-.302l-.002-.006a1.024 1.024 0 0 1 .002-.793l-.003.007a.95.95 0 0 1 .22-.309l.001-.001c.097-.084.214-.15.342-.193.284-.096.6-.096.884 0 .129.046.246.114.343.201a.91.91 0 0 1 .298.675v.025-.001zm-.306 0v-.017a.831.831 0 0 0-.057-.305l.002.006a.658.658 0 0 0-.397-.384l-.005-.001a1.022 1.022 0 0 0-.651.002l.007-.002a.68.68 0 0 0-.246.149.638.638 0 0 0-.156.232l-.001.004a.915.915 0 0 0 .002.638l-.002-.006c.07.182.216.322.398.383l.005.001c.207.067.435.067.643 0a.65.65 0 0 0 .4-.38l.002-.005a.804.804 0 0 0 .055-.296v-.021.001zm2.597.331.03.071.033-.071a.614.614 0 0 1 .04-.073l-.002.003.743-1.174c.015-.02.028-.033.042-.037a.204.204 0 0 1 .051-.006h.231v1.909h-.26v-1.463l-.001-.033.001-.035v.002l-.747 1.19c-.009.018-.025.033-.044.043s-.041.016-.064.016h-.042c-.023 0-.045-.005-.064-.016s-.034-.026-.044-.044l-.769-1.198v1.533h-.252v-1.905h.23c.018 0 .035.002.052.007h-.001a.092.092 0 0 1 .041.037l.759 1.175c.014.02.026.042.037.065l.001.003zm2.797-.095v.715h-.291v-1.906h.649c.122-.002.244.012.362.042a.72.72 0 0 1 .258.12l-.002-.001a.499.499 0 0 1 .144.184l.001.003a.564.564 0 0 1 .049.233v.012-.001.007a.536.536 0 0 1-.21.427l-.001.001a.744.744 0 0 1-.252.125l-.005.001a1.223 1.223 0 0 1-.329.044h-.022l-.351-.005zm0-.205h.362a.84.84 0 0 0 .22-.03l-.006.001a.517.517 0 0 0 .164-.083l-.001.001a.358.358 0 0 0 .134-.279v-.007c.003-.053-.007-.106-.029-.155s-.057-.094-.102-.13a.619.619 0 0 0-.394-.102h.002-.352v.786zm3.908.923h-.234a.118.118 0 0 1-.061-.018.12.12 0 0 1-.038-.043v-.001l-.198-.461h-.993l-.205.461a.106.106 0 0 1-.097.062h-.234l.872-1.909h.302l.884 1.909zm-1.439-.709h.82l-.346-.777a1.237 1.237 0 0 1-.063-.17l-.002-.009-.034.1a.979.979 0 0 1-.035.087l.003-.006-.343.776zm2.696-1.192c.017.008.032.02.044.034l1.272 1.439v-1.482h.26v1.909h-.151a.142.142 0 0 1-.055-.011h.001a.165.165 0 0 1-.047-.035l-1.271-1.438.001.033-.001.035v-.002 1.419h-.26v-1.909h.155a.15.15 0 0 1 .052.009h-.001zm3.719 1.141v.758h-.291v-.758l-.804-1.15h.265c.022 0 .042.006.059.016h-.001a.173.173 0 0 1 .039.042v.001l.503.742a.71.71 0 0 1 .086.164l.002.005.038-.082a.687.687 0 0 1 .051-.09l-.002.003.496-.747a.18.18 0 0 1 .038-.04.096.096 0 0 1 .058-.019h.268l-.806 1.155zM24.923 21.47c.127.014.255.025.384.035 1.962-.763 3.622-2.011 4.772-3.588s1.74-3.415 1.695-5.282l-2.162-1.879c.44 1.988.234 4.043-.594 5.935s-2.245 3.547-4.094 4.779z"/>
      <path  d="m24.151 21.383.058.01c1.975-1.228 3.482-2.942 4.323-4.921s.981-4.133.4-6.181l-3.08-2.676c1.246 2.2 1.747 4.661 1.446 7.098s-1.393 4.75-3.147 6.67zm10.445-6.542c-.523 2.052-1.794 3.902-3.624 5.276-.534.404-1.111.763-1.722 1.074 1.49-.38 2.859-1.053 4.003-1.966s2.03-2.042 2.592-3.3l-1.249-1.084z"/>
      <path  d="m34.106 14.539-1.778-1.545c-.034 1.762-.61 3.483-1.669 4.986s-2.562 2.731-4.352 3.559h.009c.399 0 .798-.021 1.194-.062 1.673-.593 3.151-1.537 4.303-2.748s1.94-2.65 2.295-4.189zm-9.697-8.053L22.287 4.64c-1.897.637-3.528 1.756-4.68 3.212s-1.772 3.179-1.778 4.946c.007 1.952.763 3.846 2.149 5.383s3.322 2.628 5.501 3.101c1.946-2.06 3.085-4.605 3.252-7.266s-.647-5.299-2.323-7.53zm14.599 7.769c-.008-2.316-1.07-4.535-2.955-6.173s-4.439-2.561-7.105-2.567h-.022c-1.281 0-2.512.213-3.659.606l.08-.024 12.99 11.286a7.522 7.522 0 0 0 .672-3.128z"/>
    </symbol>
    <symbol id="icon-Logo4o" viewBox="0 0 57 32">
      <path  d="M12.878 11.255h-.002c-1.279 0-2.316.921-2.316 2.058v.001c0 1.137 1.037 2.058 2.316 2.058h.002c1.279 0 2.316-.921 2.316-2.058v-.001c0-1.137-1.037-2.058-2.316-2.058zm17.093-.658c-.004-1.579-.711-3.092-1.967-4.208s-2.958-1.745-4.735-1.749c-1.777.003-3.48.631-4.737 1.748s-1.964 2.63-1.968 4.209v8.706s13.405-1.327 13.406-8.704v-.001zM5.867 22.16c.003 1.098.496 2.151 1.369 2.928s2.058 1.215 3.294 1.218c1.236-.003 2.42-.441 3.294-1.218s1.366-1.829 1.37-2.927v-6.057s-9.327.924-9.327 6.056zm4.663 1.085c-.242 0-.478-.064-.678-.183s-.357-.289-.45-.487c-.092-.198-.117-.417-.069-.627s.163-.404.334-.556c.171-.152.388-.255.625-.297s.482-.02.706.062c.223.082.414.221.548.4s.206.388.206.603c.001.143-.031.284-.092.417s-.151.252-.264.353c-.114.101-.248.182-.397.236s-.308.083-.468.083v-.004zm9.426-.598h-.9v.93h-.469v-2.275h1.481v.38h-1.012v.588h.9v.378zm2.253-.156c0 .224-.04.42-.119.589a.895.895 0 0 1-.815.529l-.033-.001h.002c-.189 0-.357-.045-.505-.136s-.262-.22-.344-.387a1.32 1.32 0 0 1-.123-.562v-.02.001-.112c0-.224.04-.421.12-.591a.896.896 0 0 1 .85-.529h-.002a.9.9 0 0 1 .845.523l.002.006c.081.17.122.366.122.589v.102zm-.475-.103c0-.238-.043-.42-.128-.544s-.207-.186-.366-.186h-.018a.418.418 0 0 0-.345.183l-.001.001c-.085.122-.129.301-.13.538v.111c0 .232.043.412.128.541s.208.192.369.192h.018c.143 0 .27-.073.344-.183l.001-.001c.084-.124.127-.304.128-.541v-.111zm1.996.592v-.014a.237.237 0 0 0-.094-.189h-.001a1.186 1.186 0 0 0-.329-.148l-.008-.002a2.32 2.32 0 0 1-.399-.162l.014.006c-.258-.14-.387-.328-.387-.564 0-.123.034-.232.103-.328a.698.698 0 0 1 .293-.225l.005-.002c.13-.054.276-.081.438-.081.163 0 .307.03.434.089a.663.663 0 0 1 .401.608v.006h-.469c0-.104-.033-.185-.098-.242s-.158-.087-.277-.087l-.027-.001a.422.422 0 0 0-.241.075l.001-.001a.224.224 0 0 0-.095.184v.008c0 .074.037.136.111.186s.185.097.33.141c.267.08.461.18.583.298s.183.267.183.444V23a.55.55 0 0 1-.222.442l-.001.001c-.149.111-.349.167-.602.167-.175 0-.334-.032-.478-.095-.144-.065-.254-.153-.33-.264s-.113-.241-.113-.388h.47c0 .251.15.377.45.377l.026.001a.438.438 0 0 0 .237-.069l-.002.001a.224.224 0 0 0 .094-.182v-.01zm2.501-1.298h-.697v1.895h-.469v-1.895h-.687v-.38h1.853v.38zm1.638.909h-.9v.609h1.056v.377H26.5v-2.275h1.522v.38h-1.053v.542h.9v.367zm1.273.153h-.373v.833H28.3v-2.275h.845c.269 0 .476.06.622.18s.219.289.219.508v.025c0 .135-.038.26-.104.367l.002-.003a.695.695 0 0 1-.3.245l-.005.002.492.93v.022h-.503l-.427-.833zm-.373-.379h.378c.118 0 .209-.03.273-.089a.32.32 0 0 0 .097-.23l-.001-.018v.001-.019a.342.342 0 0 0-.093-.235c-.06-.061-.154-.092-.28-.092h-.377v.683zm2.84.41v.802h-.469v-2.275h.887c.171 0 .321.031.45.094a.705.705 0 0 1 .405.637v.023-.001l.001.029a.653.653 0 0 1-.23.498l-.001.001c-.152.128-.363.192-.633.192h-.411zm0-.379h.419c.124 0 .218-.029.283-.088.066-.058.098-.142.098-.25 0-.111-.033-.202-.098-.27s-.156-.104-.272-.106h-.43v.714zm2.966.195h-.9v.609h1.056v.377h-1.525v-2.275h1.522v.38h-1.053v.542h.9v.367zm2.175-.909h-.697v1.895h-.469v-1.895h-.688v-.38h1.853v.38zm1.637.909h-.9v.609h1.056v.377h-1.525v-2.275h1.522v.38h-1.053v.542h.9v.367zm1.274.153h-.373v.833h-.469v-2.275h.845c.269 0 .476.06.622.18s.219.289.219.508v.025c0 .135-.038.26-.104.367l.002-.003a.695.695 0 0 1-.3.245l-.005.002.492.93v.022h-.503l-.427-.833zm-.374-.379h.378c.118 0 .209-.03.273-.089a.32.32 0 0 0 .097-.23l-.001-.018v.001l.001-.019a.342.342 0 0 0-.093-.235c-.06-.061-.154-.092-.28-.092h-.377v.683zm2.755.615v-.014a.237.237 0 0 0-.094-.189h-.001a1.186 1.186 0 0 0-.329-.148l-.008-.002a2.366 2.366 0 0 1-.4-.162l.014.006c-.258-.14-.388-.328-.388-.564 0-.123.034-.232.103-.328a.698.698 0 0 1 .293-.225l.005-.002c.13-.054.276-.081.438-.081s.307.03.434.089a.673.673 0 0 1 .293.246l.002.002c.066.1.106.223.106.355v.012-.001h-.469c0-.104-.033-.185-.098-.242s-.158-.087-.277-.087l-.027-.001a.422.422 0 0 0-.241.075l.001-.001a.224.224 0 0 0-.095.184v.008c0 .074.037.136.111.186.075.05.185.097.33.141.267.08.461.18.583.298s.183.267.183.444v.022a.547.547 0 0 1-.222.441l-.001.001c-.149.111-.349.167-.602.167-.175 0-.334-.032-.478-.095a.773.773 0 0 1-.328-.262l-.002-.002a.672.672 0 0 1-.112-.373v-.015.001h.47c0 .251.15.377.45.377l.026.001a.438.438 0 0 0 .237-.069l-.002.001a.224.224 0 0 0 .094-.182v-.01z"/>
    </symbol>
    <symbol id="icon-Logo5o" viewBox="0 0 57 32">
      <path  d="M14.27 23.859c.13.147.199.332.196.521.007.123-.017.247-.07.361s-.132.216-.233.297c-.252.175-.565.26-.881.24h-1.549v-3.302h1.517c.299-.018.596.059.84.219.098.075.176.17.227.277s.074.224.068.341l.001.031a.723.723 0 0 1-.177.475l.001-.001a.838.838 0 0 1-.457.257l-.005.001a.9.9 0 0 1 .522.281l.001.001zm-1.816-.499h.648l.047.002a.65.65 0 0 0 .367-.113l-.002.001c.049-.04.087-.09.111-.146s.034-.116.028-.176c.005-.06-.005-.12-.029-.175s-.061-.106-.108-.147a.658.658 0 0 0-.427-.111h.002-.638v.866zm1.124 1.267c.052-.041.093-.093.12-.151s.038-.121.034-.184c.004-.064-.008-.127-.035-.186s-.069-.111-.121-.153a.71.71 0 0 0-.397-.12l-.045.001h.002-.68v.908h.689a.728.728 0 0 0 .438-.116l-.003.002zm3.793.651-.844-1.291h-.317v1.291h-.726v-3.302h1.374c.346-.022.689.078.957.281.192.179.308.415.327.666s-.061.499-.224.7c-.17.178-.401.296-.655.336l.898 1.32h-.789zm-1.161-1.74h.594c.412 0 .618-.167.618-.5l.001-.03a.452.452 0 0 0-.152-.34.683.683 0 0 0-.411-.136l-.059.002h.003-.601l.007 1.005zm5.129 1.076h-1.446l-.255.665h-.761l1.328-3.265h.823l1.323 3.265h-.761l-.25-.665zm-.194-.5-.529-1.394-.529 1.394h1.057zm5.16 1.164h-.721l-1.616-2.245v2.245h-.719v-3.302h.719l1.616 2.258v-2.258h.721v3.302zm4.112-.79a1.508 1.508 0 0 1-.643.578l-.009.004c-.28.132-.608.209-.954.209l-.063-.001h.003-1.283v-3.302h1.283c.351-.008.698.061 1.013.203.276.127.503.328.652.576a1.775 1.775 0 0 1-.004 1.741l.005-.009zm-.824-.079c.206-.219.319-.499.319-.788s-.113-.569-.319-.788a1.317 1.317 0 0 0-.906-.281h.004-.5v2.137h.5c.329.019.654-.082.902-.281zm-7.803-20.8s9.301 3.215 9.103 7.867v7.869s-9.294-3.217-9.1-7.869l-.004-7.867zm17.389 13.894a13.323 13.323 0 0 1 5.855-1.99l.054-.004v-2.463c-2.444.862-4.517 2.426-5.909 4.457z"/>
      <path  d="M38.124 18.245c1.438-2.651 3.93-4.696 6.964-5.715V5.432s-13.245 4.58-12.965 11.205V27.84s.59-.205 1.519-.589c0-.358 0-.719.042-1.082.274-3.076 1.871-5.926 4.44-7.924z"/>
      <path  d="M36.864 22.407c.07-.777.225-1.546.463-2.294-1.599 1.725-2.568 3.866-2.77 6.122-.019.213-.03.426-.035.645a37.343 37.343 0 0 0 2.765-1.335l-.217.106a10.374 10.374 0 0 1-.249-2.287c0-.337.016-.67.046-.999l-.003.042zm.527.04a10.264 10.264 0 0 0 .175 3.004l-.012-.066c3.619-1.983 7.685-5.046 7.528-8.748v-.323c-2.585.265-5.004 1.3-6.885 2.946a10.02 10.02 0 0 0-.804 3.148l-.003.04z"/>
    </symbol>
    <symbol id="icon-Logo6o" viewBox="0 0 57 32">
      <path  d="M28.493 14.618a1.571 1.571 0 0 1-.323-1.065v.005-1.538c0-.471.107-.83.321-1.075s.581-.367 1.102-.366c.489 0 .836.104 1.042.313.224.266.333.592.308.92v.361h-.875v-.366c.003-.12-.005-.24-.025-.358a.36.36 0 0 0-.124-.213l-.001-.001a.499.499 0 0 0-.279-.084l-.039.002h.002l-.038-.001a.524.524 0 0 0-.297.091l.002-.001a.415.415 0 0 0-.145.232v.003a1.678 1.678 0 0 0-.034.344v.038-.002 1.866c-.014.18.025.36.112.524.044.055.104.099.175.127s.149.038.226.029a.477.477 0 0 0 .311-.085l-.002.001a.38.38 0 0 0 .13-.225v-.002c.02-.124.03-.249.027-.374v-.379h.875v.346c.025.342-.082.682-.303.967-.201.228-.544.343-1.047.343s-.884-.122-1.1-.375zm3.644.015c-.221-.239-.332-.588-.332-1.05v-1.617c0-.457.11-.802.332-1.037s.591-.351 1.109-.35c.515 0 .882.117 1.103.35.221.235.333.58.333 1.037v1.617c0 .457-.112.807-.337 1.048s-.591.361-1.1.361c-.509 0-.886-.122-1.109-.36zm1.517-.388a.894.894 0 0 0 .107-.426l-.002-.055v.002-1.98a.842.842 0 0 0-.105-.474l.002.005c-.044-.057-.106-.101-.179-.129s-.152-.037-.231-.027c-.079-.009-.159 0-.231.028s-.135.072-.18.129a.846.846 0 0 0-.107.413l.002.058v-.003 1.99a.891.891 0 0 0 .107.484l-.002-.005c.051.05.114.091.185.119a.61.61 0 0 0 .636-.119v-.009zm2.081-3.619h.942l.708 2.984.725-2.984h.917l.092 4.308h-.678l-.072-2.994-.699 2.994h-.544l-.725-3.005-.067 3.005h-.685l.085-4.308zm4.441 0h1.468c.846 0 1.268.408 1.268 1.223 0 .781-.445 1.171-1.335 1.17h-.5v1.915h-.906l.005-4.308zm1.254 1.841a.694.694 0 0 0 .5-.138l-.002.001a.687.687 0 0 0 .129-.489v.003l.001-.049c0-.122-.016-.24-.047-.352l.002.009c-.013-.043-.036-.083-.067-.118s-.07-.065-.114-.087a.93.93 0 0 0-.356-.07l-.05.001h.002-.352v1.287h.352zm2.788-1.841h.973l.998 4.308h-.844l-.197-.993h-.868l-.203.993h-.857l.998-4.308zm.832 2.815-.339-1.808-.339 1.808h.678zm1.946-2.815h.634l1.214 2.457v-2.457h.752v4.308h-.603l-1.221-2.565v2.565h-.777l.002-4.308zm4.361 2.665-1.009-2.659h.85l.616 1.708.578-1.708h.832l-.997 2.659v1.642h-.87v-1.642zm-21.465 3.526v.225h-.739v1.75h-.31v-1.75H28.1v-.225h1.792zm2.317 1.976h-.245a.105.105 0 0 1-.061-.019.113.113 0 0 1-.04-.044v-.001l-.214-.469h-1.026l-.214.469a.117.117 0 0 1-.033.053.112.112 0 0 1-.063.019h-.244l.906-1.976h.315l.917 1.968zm-1.5-.734h.855l-.362-.804a1.278 1.278 0 0 1-.064-.176l-.003-.01a1.09 1.09 0 0 0-.026.076l-.008.029-.033.083-.359.802zm3.062.54a1.099 1.099 0 0 0 .322-.025l-.007.001a.969.969 0 0 0 .137-.038l-.007.002c.04-.014.08-.031.121-.048v-.444h-.362c-.009 0-.018-.001-.026-.003s-.016-.007-.023-.012c-.006-.004-.011-.01-.014-.016s-.005-.013-.004-.02v-.152h.703v.757a1.397 1.397 0 0 1-.603.202h-.006a2.416 2.416 0 0 1-.249.012h-.015.001-.009a1.42 1.42 0 0 1-.458-.076l.01.003a1.099 1.099 0 0 1-.363-.207l.001.001a.97.97 0 0 1-.232-.307l-.002-.006a.965.965 0 0 1-.083-.397v-.014.001l-.001-.037c0-.275.122-.521.316-.688l.001-.001c.103-.089.227-.159.362-.205.155-.05.32-.075.486-.074.084 0 .169.006.252.017.148.021.282.066.403.131l-.006-.003c.056.031.108.065.158.103l-.087.122c-.007.011-.017.021-.029.027s-.027.01-.041.01a.122.122 0 0 1-.057-.016h.001a1.325 1.325 0 0 1-.095-.05l.006.003a.687.687 0 0 0-.116-.051l-.005-.002a1.027 1.027 0 0 0-.16-.043l-.007-.001a1.31 1.31 0 0 0-.215-.017h-.016.001-.013c-.121 0-.237.02-.345.057l.007-.002a.705.705 0 0 0-.433.397l-.002.005a.917.917 0 0 0 .002.665l-.002-.006c.087.19.246.336.441.403l.005.002c.115.034.237.047.359.039zm2.888-.032h.989v.225h-1.292v-1.976h.31l-.007 1.75zm2.019.225h-.31v-1.976h.31v1.976zm1.152-1.966a.151.151 0 0 1 .047.036l1.324 1.489-.002-.035.002-.037v.002-1.472h.27v1.984h-.167a.13.13 0 0 1-.056-.012h.001a.184.184 0 0 1-.049-.038l-1.323-1.488v1.536h-.259v-1.976h.161c.017 0 .035.003.051.009zm3.923-.009v.217h-1.098v.652h.89v.21h-.89v.674h1.098v.217h-1.417v-1.971h1.417zM11.286 4.616l13.757 3.372v11.818l-13.757-3.371V4.616zm-.882-1.007V17.01l15.52 3.806V7.417L10.404 3.61z"/>
      <path  d="M18.722 27.036 3.2 23.227V9.828l15.522 3.807v13.401z"/>
      <path  d="m10.661 4.465 13.578 3.33-5.774 4.987L4.885 9.45l5.776-4.985zm-.257-.856L3.2 9.828l15.522 3.807 7.202-6.219-15.52-3.807zm9.191 22.673 6.329-5.465-6.329-1.553v7.018z"/>
    </symbol>
    <symbol id="icon-email" viewBox="0 0 32 32">
<path d="M26.667 5.333h-21.333c-1.467 0-2.653 1.2-2.653 2.667l-0.013 16c0 1.467 1.2 2.667 2.667 2.667h21.333c1.467 0 2.667-1.2 2.667-2.667v-16c0-1.467-1.2-2.667-2.667-2.667zM26.133 11l-9.427 5.893c-0.427 0.267-0.987 0.267-1.413 0l-9.427-5.893c-0.333-0.213-0.533-0.573-0.533-0.96 0-0.893 0.973-1.427 1.733-0.96l8.933 5.587 8.933-5.587c0.76-0.467 1.733 0.067 1.733 0.96 0 0.387-0.2 0.747-0.533 0.96z"></path>
</symbol>
<symbol id="icon-phone" viewBox="0 0 32 32">
<path d="M24.882 19.773l-3.268-0.373c-0.785-0.090-1.557 0.18-2.11 0.733l-2.367 2.367c-3.641-1.853-6.626-4.825-8.478-8.478l2.38-2.38c0.553-0.553 0.823-1.325 0.733-2.11l-0.373-3.242c-0.154-1.299-1.248-2.277-2.56-2.277h-2.226c-1.454 0-2.663 1.209-2.573 2.663 0.682 10.987 9.469 19.761 20.443 20.443 1.454 0.090 2.663-1.119 2.663-2.573v-2.226c0.013-1.3-0.965-2.393-2.264-2.547z"></path>
</symbol>
<symbol id="icon-user" viewBox="0 0 32 32">
<path d="M16 16c2.947 0 5.333-2.387 5.333-5.333s-2.387-5.333-5.333-5.333c-2.947 0-5.333 2.387-5.333 5.333s2.387 5.333 5.333 5.333zM16 18.667c-3.56 0-10.667 1.787-10.667 5.333v1.333c0 0.733 0.6 1.333 1.333 1.333h18.667c0.733 0 1.333-0.6 1.333-1.333v-1.333c0-3.547-7.107-5.333-10.667-5.333z"></path>
</symbol>
<symbol id="icon-close_modal" viewBox="0 0 32 32">
<path fill="#fff" style="fill: var(--color1, #fff)" d="M32 16c0 8.837-7.163 16-16 16s-16-7.163-16-16c0-8.837 7.163-16 16-16s16 7.163 16 16z"></path>
<path fill="none" stroke="#000" style="stroke: var(--color2, #000)" stroke-linejoin="miter" stroke-linecap="butt" stroke-miterlimit="4" stroke-width="1.0667" d="M31.467 16c0 8.542-6.925 15.467-15.467 15.467s-15.467-6.925-15.467-15.467c0-8.542 6.925-15.467 15.467-15.467s15.467 6.925 15.467 15.467z"></path>
<path fill="#000" style="fill: var(--color2, #000)" d="M22.4 10.782l-1.182-1.182-4.685 4.685-4.685-4.685-1.182 1.182 4.685 4.685-4.685 4.685 1.182 1.182 4.685-4.685 4.685 4.685 1.182-1.182-4.685-4.685 4.685-4.685z"></path>
</symbol>
<symbol id="icon-icon_chek" viewBox="0 0 34 32">
<path fill="#2196f3" style="fill: var(--color3, #2196f3)" d="M4.267 0h25.6c2.356 0 4.267 1.91 4.267 4.267v23.467c0 2.356-1.91 4.267-4.267 4.267h-25.6c-2.356 0-4.267-1.91-4.267-4.267v-23.467c0-2.356 1.91-4.267 4.267-4.267z"></path>
<path fill="#fff" style="fill: var(--color1, #fff); stroke: var(--color1, #fff)" stroke="#fff" stroke-linejoin="miter" stroke-linecap="butt" stroke-miterlimit="4" stroke-width="0.4267" d="M8.442 16.538l-0.147-0.141-0.147 0.139-2.057 1.95 0.162 0.156 7.605 7.253 0.147-0.141 16.171-15.426-0.162-0.154-2.029-1.935-0.147 0.141-13.98 13.325-5.417-5.167z"></path>
</symbol>
  </defs>
</svg>
